ISO-10303-21;
HEADER;
FILE_DESCRIPTION(('MBB beam'),'2;1');
FILE_NAME('MBB beam','2026-01-01T00:00:00',('KoFEM'),('KoFEM'),'KoFEM examples/gallery/step-prism.mjs','KoFEM','');
FILE_SCHEMA(('AUTOMOTIVE_DESIGN { 1 0 10303 214 1 1 1 1 }'));
ENDSEC;
DATA;
#1 = CARTESIAN_POINT('',(0.,0.,0.));
#2 = VERTEX_POINT('',#1);
#3 = CARTESIAN_POINT('',(5.,0.,0.));
#4 = VERTEX_POINT('',#3);
#5 = CARTESIAN_POINT('',(295.,0.,0.));
#6 = VERTEX_POINT('',#5);
#7 = CARTESIAN_POINT('',(300.,0.,0.));
#8 = VERTEX_POINT('',#7);
#9 = CARTESIAN_POINT('',(300.,50.,0.));
#10 = VERTEX_POINT('',#9);
#11 = CARTESIAN_POINT('',(155.,50.,0.));
#12 = VERTEX_POINT('',#11);
#13 = CARTESIAN_POINT('',(145.,50.,0.));
#14 = VERTEX_POINT('',#13);
#15 = CARTESIAN_POINT('',(0.,50.,0.));
#16 = VERTEX_POINT('',#15);
#17 = CARTESIAN_POINT('',(0.,0.,10.));
#18 = VERTEX_POINT('',#17);
#19 = CARTESIAN_POINT('',(5.,0.,10.));
#20 = VERTEX_POINT('',#19);
#21 = CARTESIAN_POINT('',(295.,0.,10.));
#22 = VERTEX_POINT('',#21);
#23 = CARTESIAN_POINT('',(300.,0.,10.));
#24 = VERTEX_POINT('',#23);
#25 = CARTESIAN_POINT('',(300.,50.,10.));
#26 = VERTEX_POINT('',#25);
#27 = CARTESIAN_POINT('',(155.,50.,10.));
#28 = VERTEX_POINT('',#27);
#29 = CARTESIAN_POINT('',(145.,50.,10.));
#30 = VERTEX_POINT('',#29);
#31 = CARTESIAN_POINT('',(0.,50.,10.));
#32 = VERTEX_POINT('',#31);
#33 = DIRECTION('',(1.,0.,0.));
#34 = VECTOR('',#33,5.);
#35 = CARTESIAN_POINT('',(0.,0.,0.));
#36 = LINE('',#35,#34);
#37 = EDGE_CURVE('',#2,#4,#36,.T.);
#38 = DIRECTION('',(1.,0.,0.));
#39 = VECTOR('',#38,5.);
#40 = CARTESIAN_POINT('',(0.,0.,10.));
#41 = LINE('',#40,#39);
#42 = EDGE_CURVE('',#18,#20,#41,.T.);
#43 = DIRECTION('',(0.,0.,1.));
#44 = VECTOR('',#43,10.);
#45 = CARTESIAN_POINT('',(0.,0.,0.));
#46 = LINE('',#45,#44);
#47 = EDGE_CURVE('',#2,#18,#46,.T.);
#48 = DIRECTION('',(1.,0.,0.));
#49 = VECTOR('',#48,290.);
#50 = CARTESIAN_POINT('',(5.,0.,0.));
#51 = LINE('',#50,#49);
#52 = EDGE_CURVE('',#4,#6,#51,.T.);
#53 = DIRECTION('',(1.,0.,0.));
#54 = VECTOR('',#53,290.);
#55 = CARTESIAN_POINT('',(5.,0.,10.));
#56 = LINE('',#55,#54);
#57 = EDGE_CURVE('',#20,#22,#56,.T.);
#58 = DIRECTION('',(0.,0.,1.));
#59 = VECTOR('',#58,10.);
#60 = CARTESIAN_POINT('',(5.,0.,0.));
#61 = LINE('',#60,#59);
#62 = EDGE_CURVE('',#4,#20,#61,.T.);
#63 = DIRECTION('',(1.,0.,0.));
#64 = VECTOR('',#63,5.);
#65 = CARTESIAN_POINT('',(295.,0.,0.));
#66 = LINE('',#65,#64);
#67 = EDGE_CURVE('',#6,#8,#66,.T.);
#68 = DIRECTION('',(1.,0.,0.));
#69 = VECTOR('',#68,5.);
#70 = CARTESIAN_POINT('',(295.,0.,10.));
#71 = LINE('',#70,#69);
#72 = EDGE_CURVE('',#22,#24,#71,.T.);
#73 = DIRECTION('',(0.,0.,1.));
#74 = VECTOR('',#73,10.);
#75 = CARTESIAN_POINT('',(295.,0.,0.));
#76 = LINE('',#75,#74);
#77 = EDGE_CURVE('',#6,#22,#76,.T.);
#78 = DIRECTION('',(0.,1.,0.));
#79 = VECTOR('',#78,50.);
#80 = CARTESIAN_POINT('',(300.,0.,0.));
#81 = LINE('',#80,#79);
#82 = EDGE_CURVE('',#8,#10,#81,.T.);
#83 = DIRECTION('',(0.,1.,0.));
#84 = VECTOR('',#83,50.);
#85 = CARTESIAN_POINT('',(300.,0.,10.));
#86 = LINE('',#85,#84);
#87 = EDGE_CURVE('',#24,#26,#86,.T.);
#88 = DIRECTION('',(0.,0.,1.));
#89 = VECTOR('',#88,10.);
#90 = CARTESIAN_POINT('',(300.,0.,0.));
#91 = LINE('',#90,#89);
#92 = EDGE_CURVE('',#8,#24,#91,.T.);
#93 = DIRECTION('',(-1.,0.,0.));
#94 = VECTOR('',#93,145.);
#95 = CARTESIAN_POINT('',(300.,50.,0.));
#96 = LINE('',#95,#94);
#97 = EDGE_CURVE('',#10,#12,#96,.T.);
#98 = DIRECTION('',(-1.,0.,0.));
#99 = VECTOR('',#98,145.);
#100 = CARTESIAN_POINT('',(300.,50.,10.));
#101 = LINE('',#100,#99);
#102 = EDGE_CURVE('',#26,#28,#101,.T.);
#103 = DIRECTION('',(0.,0.,1.));
#104 = VECTOR('',#103,10.);
#105 = CARTESIAN_POINT('',(300.,50.,0.));
#106 = LINE('',#105,#104);
#107 = EDGE_CURVE('',#10,#26,#106,.T.);
#108 = DIRECTION('',(-1.,0.,0.));
#109 = VECTOR('',#108,10.);
#110 = CARTESIAN_POINT('',(155.,50.,0.));
#111 = LINE('',#110,#109);
#112 = EDGE_CURVE('',#12,#14,#111,.T.);
#113 = DIRECTION('',(-1.,0.,0.));
#114 = VECTOR('',#113,10.);
#115 = CARTESIAN_POINT('',(155.,50.,10.));
#116 = LINE('',#115,#114);
#117 = EDGE_CURVE('',#28,#30,#116,.T.);
#118 = DIRECTION('',(0.,0.,1.));
#119 = VECTOR('',#118,10.);
#120 = CARTESIAN_POINT('',(155.,50.,0.));
#121 = LINE('',#120,#119);
#122 = EDGE_CURVE('',#12,#28,#121,.T.);
#123 = DIRECTION('',(-1.,0.,0.));
#124 = VECTOR('',#123,145.);
#125 = CARTESIAN_POINT('',(145.,50.,0.));
#126 = LINE('',#125,#124);
#127 = EDGE_CURVE('',#14,#16,#126,.T.);
#128 = DIRECTION('',(-1.,0.,0.));
#129 = VECTOR('',#128,145.);
#130 = CARTESIAN_POINT('',(145.,50.,10.));
#131 = LINE('',#130,#129);
#132 = EDGE_CURVE('',#30,#32,#131,.T.);
#133 = DIRECTION('',(0.,0.,1.));
#134 = VECTOR('',#133,10.);
#135 = CARTESIAN_POINT('',(145.,50.,0.));
#136 = LINE('',#135,#134);
#137 = EDGE_CURVE('',#14,#30,#136,.T.);
#138 = DIRECTION('',(0.,-1.,0.));
#139 = VECTOR('',#138,50.);
#140 = CARTESIAN_POINT('',(0.,50.,0.));
#141 = LINE('',#140,#139);
#142 = EDGE_CURVE('',#16,#2,#141,.T.);
#143 = DIRECTION('',(0.,-1.,0.));
#144 = VECTOR('',#143,50.);
#145 = CARTESIAN_POINT('',(0.,50.,10.));
#146 = LINE('',#145,#144);
#147 = EDGE_CURVE('',#32,#18,#146,.T.);
#148 = DIRECTION('',(0.,0.,1.));
#149 = VECTOR('',#148,10.);
#150 = CARTESIAN_POINT('',(0.,50.,0.));
#151 = LINE('',#150,#149);
#152 = EDGE_CURVE('',#16,#32,#151,.T.);
#153 = ORIENTED_EDGE('',*,*,#37,.T.);
#154 = ORIENTED_EDGE('',*,*,#62,.T.);
#155 = ORIENTED_EDGE('',*,*,#42,.F.);
#156 = ORIENTED_EDGE('',*,*,#47,.F.);
#157 = CARTESIAN_POINT('',(0.,0.,0.));
#158 = DIRECTION('',(0.,-1.,0.));
#159 = DIRECTION('',(1.,0.,0.));
#160 = AXIS2_PLACEMENT_3D('',#157,#158,#159);
#161 = PLANE('',#160);
#162 = EDGE_LOOP('',(#153,#154,#155,#156));
#163 = FACE_OUTER_BOUND('',#162,.T.);
#164 = ADVANCED_FACE('',(#163),#161,.T.);
#165 = ORIENTED_EDGE('',*,*,#52,.T.);
#166 = ORIENTED_EDGE('',*,*,#77,.T.);
#167 = ORIENTED_EDGE('',*,*,#57,.F.);
#168 = ORIENTED_EDGE('',*,*,#62,.F.);
#169 = CARTESIAN_POINT('',(5.,0.,0.));
#170 = DIRECTION('',(0.,-1.,0.));
#171 = DIRECTION('',(1.,0.,0.));
#172 = AXIS2_PLACEMENT_3D('',#169,#170,#171);
#173 = PLANE('',#172);
#174 = EDGE_LOOP('',(#165,#166,#167,#168));
#175 = FACE_OUTER_BOUND('',#174,.T.);
#176 = ADVANCED_FACE('',(#175),#173,.T.);
#177 = ORIENTED_EDGE('',*,*,#67,.T.);
#178 = ORIENTED_EDGE('',*,*,#92,.T.);
#179 = ORIENTED_EDGE('',*,*,#72,.F.);
#180 = ORIENTED_EDGE('',*,*,#77,.F.);
#181 = CARTESIAN_POINT('',(295.,0.,0.));
#182 = DIRECTION('',(0.,-1.,0.));
#183 = DIRECTION('',(1.,0.,0.));
#184 = AXIS2_PLACEMENT_3D('',#181,#182,#183);
#185 = PLANE('',#184);
#186 = EDGE_LOOP('',(#177,#178,#179,#180));
#187 = FACE_OUTER_BOUND('',#186,.T.);
#188 = ADVANCED_FACE('',(#187),#185,.T.);
#189 = ORIENTED_EDGE('',*,*,#82,.T.);
#190 = ORIENTED_EDGE('',*,*,#107,.T.);
#191 = ORIENTED_EDGE('',*,*,#87,.F.);
#192 = ORIENTED_EDGE('',*,*,#92,.F.);
#193 = CARTESIAN_POINT('',(300.,0.,0.));
#194 = DIRECTION('',(1.,0.,0.));
#195 = DIRECTION('',(0.,1.,0.));
#196 = AXIS2_PLACEMENT_3D('',#193,#194,#195);
#197 = PLANE('',#196);
#198 = EDGE_LOOP('',(#189,#190,#191,#192));
#199 = FACE_OUTER_BOUND('',#198,.T.);
#200 = ADVANCED_FACE('',(#199),#197,.T.);
#201 = ORIENTED_EDGE('',*,*,#97,.T.);
#202 = ORIENTED_EDGE('',*,*,#122,.T.);
#203 = ORIENTED_EDGE('',*,*,#102,.F.);
#204 = ORIENTED_EDGE('',*,*,#107,.F.);
#205 = CARTESIAN_POINT('',(300.,50.,0.));
#206 = DIRECTION('',(0.,1.,0.));
#207 = DIRECTION('',(-1.,0.,0.));
#208 = AXIS2_PLACEMENT_3D('',#205,#206,#207);
#209 = PLANE('',#208);
#210 = EDGE_LOOP('',(#201,#202,#203,#204));
#211 = FACE_OUTER_BOUND('',#210,.T.);
#212 = ADVANCED_FACE('',(#211),#209,.T.);
#213 = ORIENTED_EDGE('',*,*,#112,.T.);
#214 = ORIENTED_EDGE('',*,*,#137,.T.);
#215 = ORIENTED_EDGE('',*,*,#117,.F.);
#216 = ORIENTED_EDGE('',*,*,#122,.F.);
#217 = CARTESIAN_POINT('',(155.,50.,0.));
#218 = DIRECTION('',(0.,1.,0.));
#219 = DIRECTION('',(-1.,0.,0.));
#220 = AXIS2_PLACEMENT_3D('',#217,#218,#219);
#221 = PLANE('',#220);
#222 = EDGE_LOOP('',(#213,#214,#215,#216));
#223 = FACE_OUTER_BOUND('',#222,.T.);
#224 = ADVANCED_FACE('',(#223),#221,.T.);
#225 = ORIENTED_EDGE('',*,*,#127,.T.);
#226 = ORIENTED_EDGE('',*,*,#152,.T.);
#227 = ORIENTED_EDGE('',*,*,#132,.F.);
#228 = ORIENTED_EDGE('',*,*,#137,.F.);
#229 = CARTESIAN_POINT('',(145.,50.,0.));
#230 = DIRECTION('',(0.,1.,0.));
#231 = DIRECTION('',(-1.,0.,0.));
#232 = AXIS2_PLACEMENT_3D('',#229,#230,#231);
#233 = PLANE('',#232);
#234 = EDGE_LOOP('',(#225,#226,#227,#228));
#235 = FACE_OUTER_BOUND('',#234,.T.);
#236 = ADVANCED_FACE('',(#235),#233,.T.);
#237 = ORIENTED_EDGE('',*,*,#142,.T.);
#238 = ORIENTED_EDGE('',*,*,#47,.T.);
#239 = ORIENTED_EDGE('',*,*,#147,.F.);
#240 = ORIENTED_EDGE('',*,*,#152,.F.);
#241 = CARTESIAN_POINT('',(0.,50.,0.));
#242 = DIRECTION('',(-1.,0.,0.));
#243 = DIRECTION('',(0.,-1.,0.));
#244 = AXIS2_PLACEMENT_3D('',#241,#242,#243);
#245 = PLANE('',#244);
#246 = EDGE_LOOP('',(#237,#238,#239,#240));
#247 = FACE_OUTER_BOUND('',#246,.T.);
#248 = ADVANCED_FACE('',(#247),#245,.T.);
#249 = ORIENTED_EDGE('',*,*,#142,.F.);
#250 = ORIENTED_EDGE('',*,*,#127,.F.);
#251 = ORIENTED_EDGE('',*,*,#112,.F.);
#252 = ORIENTED_EDGE('',*,*,#97,.F.);
#253 = ORIENTED_EDGE('',*,*,#82,.F.);
#254 = ORIENTED_EDGE('',*,*,#67,.F.);
#255 = ORIENTED_EDGE('',*,*,#52,.F.);
#256 = ORIENTED_EDGE('',*,*,#37,.F.);
#257 = CARTESIAN_POINT('',(0.,0.,0.));
#258 = DIRECTION('',(0.,0.,-1.));
#259 = DIRECTION('',(1.,0.,0.));
#260 = AXIS2_PLACEMENT_3D('',#257,#258,#259);
#261 = PLANE('',#260);
#262 = EDGE_LOOP('',(#249,#250,#251,#252,#253,#254,#255,#256));
#263 = FACE_OUTER_BOUND('',#262,.T.);
#264 = ADVANCED_FACE('',(#263),#261,.T.);
#265 = ORIENTED_EDGE('',*,*,#42,.T.);
#266 = ORIENTED_EDGE('',*,*,#57,.T.);
#267 = ORIENTED_EDGE('',*,*,#72,.T.);
#268 = ORIENTED_EDGE('',*,*,#87,.T.);
#269 = ORIENTED_EDGE('',*,*,#102,.T.);
#270 = ORIENTED_EDGE('',*,*,#117,.T.);
#271 = ORIENTED_EDGE('',*,*,#132,.T.);
#272 = ORIENTED_EDGE('',*,*,#147,.T.);
#273 = CARTESIAN_POINT('',(0.,0.,10.));
#274 = DIRECTION('',(0.,0.,1.));
#275 = DIRECTION('',(1.,0.,0.));
#276 = AXIS2_PLACEMENT_3D('',#273,#274,#275);
#277 = PLANE('',#276);
#278 = EDGE_LOOP('',(#265,#266,#267,#268,#269,#270,#271,#272));
#279 = FACE_OUTER_BOUND('',#278,.T.);
#280 = ADVANCED_FACE('',(#279),#277,.T.);
#281 = CLOSED_SHELL('',(#164,#176,#188,#200,#212,#224,#236,#248,#264,#280));
#282 = MANIFOLD_SOLID_BREP('MBB beam',#281);
#283 = CARTESIAN_POINT('',(0.,0.,0.));
#284 = DIRECTION('',(0.,0.,1.));
#285 = DIRECTION('',(1.,0.,0.));
#286 = AXIS2_PLACEMENT_3D('',#283,#284,#285);
#287 = ( LENGTH_UNIT() NAMED_UNIT(*) SI_UNIT(.MILLI.,.METRE.) );
#288 = ( NAMED_UNIT(*) PLANE_ANGLE_UNIT() SI_UNIT($,.RADIAN.) );
#289 = ( NAMED_UNIT(*) SI_UNIT($,.STERADIAN.) SOLID_ANGLE_UNIT() );
#290 = UNCERTAINTY_MEASURE_WITH_UNIT(LENGTH_MEASURE(1.E-07),#287,'distance_accuracy_value','confusion accuracy');
#291 = ( GEOMETRIC_REPRESENTATION_CONTEXT(3) GLOBAL_UNCERTAINTY_ASSIGNED_CONTEXT((#290)) GLOBAL_UNIT_ASSIGNED_CONTEXT((#287,#288,#289)) REPRESENTATION_CONTEXT('Context #1','3D Context with UNIT and UNCERTAINTY') );
#292 = ADVANCED_BREP_SHAPE_REPRESENTATION('',(#286,#282),#291);
#293 = APPLICATION_CONTEXT('core data for automotive mechanical design processes');
#294 = APPLICATION_PROTOCOL_DEFINITION('international standard','automotive_design',2000,#293);
#295 = PRODUCT_CONTEXT('',#293,'mechanical');
#296 = PRODUCT('MBB beam','MBB beam','',(#295));
#297 = PRODUCT_DEFINITION_FORMATION('','',#296);
#298 = PRODUCT_DEFINITION_CONTEXT('part definition',#293,'design');
#299 = PRODUCT_DEFINITION('design','',#297,#298);
#300 = PRODUCT_DEFINITION_SHAPE('','',#299);
#301 = SHAPE_DEFINITION_REPRESENTATION(#300,#292);
#302 = PRODUCT_RELATED_PRODUCT_CATEGORY('part',$,(#296));
ENDSEC;
END-ISO-10303-21;
