solid 
 facet normal  9.927089e-01  1.205367e-01  1.386272e-19
   outer loop
     vertex  1.456413e+01  3.589735e+00  3.000000e+01
     vertex  1.500000e+01 -3.673940e-15  3.000000e+01
     vertex  1.500000e+01 -3.673940e-15  0.000000e+00
   endloop
 endfacet
 facet normal  9.927089e-01  1.205367e-01  0.000000e+00
   outer loop
     vertex  1.456413e+01  3.589735e+00  3.000000e+01
     vertex  1.500000e+01 -3.673940e-15  0.000000e+00
     vertex  1.456413e+01  3.589735e+00  0.000000e+00
   endloop
 endfacet
 facet normal  9.350162e-01  3.546049e-01  0.000000e+00
   outer loop
     vertex  1.328184e+01  6.970848e+00  3.000000e+01
     vertex  1.456413e+01  3.589735e+00  0.000000e+00
     vertex  1.328184e+01  6.970848e+00  0.000000e+00
   endloop
 endfacet
 facet normal  9.350162e-01  3.546049e-01 -2.169637e-18
   outer loop
     vertex  1.328184e+01  6.970848e+00  3.000000e+01
     vertex  1.456413e+01  3.589735e+00  3.000000e+01
     vertex  1.456413e+01  3.589735e+00  0.000000e+00
   endloop
 endfacet
 facet normal  8.229839e-01  5.680647e-01  0.000000e+00
   outer loop
     vertex  1.122766e+01  9.946840e+00  3.000000e+01
     vertex  1.328184e+01  6.970848e+00  0.000000e+00
     vertex  1.122766e+01  9.946840e+00  0.000000e+00
   endloop
 endfacet
 facet normal  6.631227e-01  7.485107e-01  0.000000e+00
   outer loop
     vertex  1.122766e+01  9.946840e+00  3.000000e+01
     vertex  1.122766e+01  9.946840e+00  0.000000e+00
     vertex  8.520971e+00  1.234476e+01  0.000000e+00
   endloop
 endfacet
 facet normal  8.229839e-01  5.680647e-01  5.054148e-20
   outer loop
     vertex  1.122766e+01  9.946840e+00  3.000000e+01
     vertex  1.328184e+01  6.970848e+00  3.000000e+01
     vertex  1.328184e+01  6.970848e+00  0.000000e+00
   endloop
 endfacet
 facet normal  6.631227e-01  7.485107e-01  0.000000e+00
   outer loop
     vertex  8.520971e+00  1.234476e+01  3.000000e+01
     vertex  1.122766e+01  9.946840e+00  3.000000e+01
     vertex  8.520971e+00  1.234476e+01  0.000000e+00
   endloop
 endfacet
 facet normal  4.647232e-01  8.854560e-01  0.000000e+00
   outer loop
     vertex  5.319073e+00  1.402524e+01  3.000000e+01
     vertex  8.520971e+00  1.234476e+01  0.000000e+00
     vertex  5.319073e+00  1.402524e+01  0.000000e+00
   endloop
 endfacet
 facet normal  4.647232e-01  8.854560e-01  3.473202e-18
   outer loop
     vertex  5.319073e+00  1.402524e+01  3.000000e+01
     vertex  8.520971e+00  1.234476e+01  3.000000e+01
     vertex  8.520971e+00  1.234476e+01  0.000000e+00
   endloop
 endfacet
 facet normal  2.393157e-01  9.709418e-01  0.000000e+00
   outer loop
     vertex  1.808050e+00  1.489063e+01  3.000000e+01
     vertex  5.319073e+00  1.402524e+01  0.000000e+00
     vertex  1.808050e+00  1.489063e+01  0.000000e+00
   endloop
 endfacet
 facet normal  0.000000e+00  1.000000e+00  0.000000e+00
   outer loop
     vertex  1.808050e+00  1.489063e+01  3.000000e+01
     vertex  1.808050e+00  1.489063e+01  0.000000e+00
     vertex -1.808050e+00  1.489063e+01  0.000000e+00
   endloop
 endfacet
 facet normal  2.393157e-01  9.709418e-01  2.896661e-19
   outer loop
     vertex  1.808050e+00  1.489063e+01  3.000000e+01
     vertex  5.319073e+00  1.402524e+01  3.000000e+01
     vertex  5.319073e+00  1.402524e+01  0.000000e+00
   endloop
 endfacet
 facet normal -2.393157e-01  9.709418e-01  0.000000e+00
   outer loop
     vertex -1.808050e+00  1.489063e+01  3.000000e+01
     vertex -1.808050e+00  1.489063e+01  0.000000e+00
     vertex -5.319073e+00  1.402524e+01  0.000000e+00
   endloop
 endfacet
 facet normal -0.000000e+00  1.000000e+00  0.000000e+00
   outer loop
     vertex -1.808050e+00  1.489063e+01  3.000000e+01
     vertex  1.808050e+00  1.489063e+01  3.000000e+01
     vertex -1.808050e+00  1.489063e+01  0.000000e+00
   endloop
 endfacet
 facet normal -2.393157e-01  9.709418e-01  0.000000e+00
   outer loop
     vertex -5.319073e+00  1.402524e+01  3.000000e+01
     vertex -1.808050e+00  1.489063e+01  3.000000e+01
     vertex -5.319073e+00  1.402524e+01  0.000000e+00
   endloop
 endfacet
 facet normal -4.647232e-01  8.854560e-01  0.000000e+00
   outer loop
     vertex -8.520971e+00  1.234476e+01  3.000000e+01
     vertex -5.319073e+00  1.402524e+01  0.000000e+00
     vertex -8.520971e+00  1.234476e+01  0.000000e+00
   endloop
 endfacet
 facet normal -6.631227e-01  7.485107e-01  0.000000e+00
   outer loop
     vertex -8.520971e+00  1.234476e+01  3.000000e+01
     vertex -8.520971e+00  1.234476e+01  0.000000e+00
     vertex -1.122766e+01  9.946840e+00  0.000000e+00
   endloop
 endfacet
 facet normal -4.647232e-01  8.854560e-01  2.437528e-18
   outer loop
     vertex -8.520971e+00  1.234476e+01  3.000000e+01
     vertex -5.319073e+00  1.402524e+01  3.000000e+01
     vertex -5.319073e+00  1.402524e+01  0.000000e+00
   endloop
 endfacet
 facet normal -6.631227e-01  7.485107e-01  0.000000e+00
   outer loop
     vertex -1.122766e+01  9.946840e+00  3.000000e+01
     vertex -8.520971e+00  1.234476e+01  3.000000e+01
     vertex -1.122766e+01  9.946840e+00  0.000000e+00
   endloop
 endfacet
 facet normal -8.229839e-01  5.680647e-01 -2.217971e-18
   outer loop
     vertex -1.328184e+01  6.970848e+00  3.000000e+01
     vertex -1.122766e+01  9.946840e+00  3.000000e+01
     vertex -1.122766e+01  9.946840e+00  0.000000e+00
   endloop
 endfacet
 facet normal -8.229839e-01  5.680647e-01  0.000000e+00
   outer loop
     vertex -1.328184e+01  6.970848e+00  3.000000e+01
     vertex -1.122766e+01  9.946840e+00  0.000000e+00
     vertex -1.328184e+01  6.970848e+00  0.000000e+00
   endloop
 endfacet
 facet normal -9.350162e-01  3.546049e-01  0.000000e+00
   outer loop
     vertex -1.328184e+01  6.970848e+00  3.000000e+01
     vertex -1.328184e+01  6.970848e+00  0.000000e+00
     vertex -1.456413e+01  3.589735e+00  0.000000e+00
   endloop
 endfacet
 facet normal -9.350162e-01  3.546049e-01  0.000000e+00
   outer loop
     vertex -1.456413e+01  3.589735e+00  3.000000e+01
     vertex -1.328184e+01  6.970848e+00  3.000000e+01
     vertex -1.456413e+01  3.589735e+00  0.000000e+00
   endloop
 endfacet
 facet normal -9.927089e-01  1.205367e-01  0.000000e+00
   outer loop
     vertex -1.456413e+01  3.589735e+00  3.000000e+01
     vertex -1.456413e+01  3.589735e+00  0.000000e+00
     vertex -1.500000e+01  1.515965e-14  0.000000e+00
   endloop
 endfacet
 facet normal -9.927089e-01  1.205367e-01  0.000000e+00
   outer loop
     vertex -1.500000e+01  1.515965e-14  3.000000e+01
     vertex -1.456413e+01  3.589735e+00  3.000000e+01
     vertex -1.500000e+01  1.515965e-14  0.000000e+00
   endloop
 endfacet
 facet normal -9.927089e-01 -1.205367e-01 -9.127593e-19
   outer loop
     vertex -1.456413e+01 -3.589735e+00  3.000000e+01
     vertex -1.500000e+01  1.515965e-14  3.000000e+01
     vertex -1.500000e+01  1.515965e-14  0.000000e+00
   endloop
 endfacet
 facet normal -9.927089e-01 -1.205367e-01 -0.000000e+00
   outer loop
     vertex -1.456413e+01 -3.589735e+00  3.000000e+01
     vertex -1.500000e+01  1.515965e-14  0.000000e+00
     vertex -1.456413e+01 -3.589735e+00  0.000000e+00
   endloop
 endfacet
 facet normal -9.350162e-01 -3.546049e-01 -2.760600e-18
   outer loop
     vertex -1.328184e+01 -6.970848e+00  3.000000e+01
     vertex -1.456413e+01 -3.589735e+00  3.000000e+01
     vertex -1.456413e+01 -3.589735e+00  0.000000e+00
   endloop
 endfacet
 facet normal -9.350162e-01 -3.546049e-01 -0.000000e+00
   outer loop
     vertex -1.328184e+01 -6.970848e+00  3.000000e+01
     vertex -1.456413e+01 -3.589735e+00  0.000000e+00
     vertex -1.328184e+01 -6.970848e+00  0.000000e+00
   endloop
 endfacet
 facet normal -8.229839e-01 -5.680647e-01 -2.416447e-19
   outer loop
     vertex -1.122766e+01 -9.946840e+00  3.000000e+01
     vertex -1.328184e+01 -6.970848e+00  3.000000e+01
     vertex -1.328184e+01 -6.970848e+00  0.000000e+00
   endloop
 endfacet
 facet normal -8.229839e-01 -5.680647e-01 -0.000000e+00
   outer loop
     vertex -1.122766e+01 -9.946840e+00  3.000000e+01
     vertex -1.328184e+01 -6.970848e+00  0.000000e+00
     vertex -1.122766e+01 -9.946840e+00  0.000000e+00
   endloop
 endfacet
 facet normal -6.631227e-01 -7.485107e-01 -0.000000e+00
   outer loop
     vertex -1.122766e+01 -9.946840e+00  3.000000e+01
     vertex -1.122766e+01 -9.946840e+00  0.000000e+00
     vertex -8.520971e+00 -1.234476e+01  0.000000e+00
   endloop
 endfacet
 facet normal -6.631227e-01 -7.485107e-01 -0.000000e+00
   outer loop
     vertex -8.520971e+00 -1.234476e+01  3.000000e+01
     vertex -1.122766e+01 -9.946840e+00  3.000000e+01
     vertex -8.520971e+00 -1.234476e+01  0.000000e+00
   endloop
 endfacet
 facet normal -4.647232e-01 -8.854560e-01 -3.489374e-18
   outer loop
     vertex -5.319073e+00 -1.402524e+01  3.000000e+01
     vertex -8.520971e+00 -1.234476e+01  3.000000e+01
     vertex -8.520971e+00 -1.234476e+01  0.000000e+00
   endloop
 endfacet
 facet normal -4.647232e-01 -8.854560e-01 -0.000000e+00
   outer loop
     vertex -5.319073e+00 -1.402524e+01  3.000000e+01
     vertex -8.520971e+00 -1.234476e+01  0.000000e+00
     vertex -5.319073e+00 -1.402524e+01  0.000000e+00
   endloop
 endfacet
 facet normal -2.393157e-01 -9.709418e-01 -2.029650e-18
   outer loop
     vertex -1.808050e+00 -1.489063e+01  3.000000e+01
     vertex -5.319073e+00 -1.402524e+01  3.000000e+01
     vertex -5.319073e+00 -1.402524e+01  0.000000e+00
   endloop
 endfacet
 facet normal -2.393157e-01 -9.709418e-01 -0.000000e+00
   outer loop
     vertex -1.808050e+00 -1.489063e+01  3.000000e+01
     vertex -5.319073e+00 -1.402524e+01  0.000000e+00
     vertex -1.808050e+00 -1.489063e+01  0.000000e+00
   endloop
 endfacet
 facet normal -1.964942e-15 -1.000000e+00  0.000000e+00
   outer loop
     vertex  1.808050e+00 -1.489063e+01  3.000000e+01
     vertex -1.808050e+00 -1.489063e+01  3.000000e+01
     vertex -1.808050e+00 -1.489063e+01  0.000000e+00
   endloop
 endfacet
 facet normal -1.964942e-15 -1.000000e+00 -0.000000e+00
   outer loop
     vertex  1.808050e+00 -1.489063e+01  3.000000e+01
     vertex -1.808050e+00 -1.489063e+01  0.000000e+00
     vertex  1.808050e+00 -1.489063e+01  0.000000e+00
   endloop
 endfacet
 facet normal  2.393157e-01 -9.709418e-01 -2.705627e-19
   outer loop
     vertex  5.319073e+00 -1.402524e+01  3.000000e+01
     vertex  1.808050e+00 -1.489063e+01  3.000000e+01
     vertex  1.808050e+00 -1.489063e+01  0.000000e+00
   endloop
 endfacet
 facet normal  2.393157e-01 -9.709418e-01  0.000000e+00
   outer loop
     vertex  5.319073e+00 -1.402524e+01  3.000000e+01
     vertex  1.808050e+00 -1.489063e+01  0.000000e+00
     vertex  5.319073e+00 -1.402524e+01  0.000000e+00
   endloop
 endfacet
 facet normal  4.647232e-01 -8.854560e-01 -2.949750e-18
   outer loop
     vertex  8.520971e+00 -1.234476e+01  3.000000e+01
     vertex  5.319073e+00 -1.402524e+01  3.000000e+01
     vertex  5.319073e+00 -1.402524e+01  0.000000e+00
   endloop
 endfacet
 facet normal  4.647232e-01 -8.854560e-01  0.000000e+00
   outer loop
     vertex  8.520971e+00 -1.234476e+01  3.000000e+01
     vertex  5.319073e+00 -1.402524e+01  0.000000e+00
     vertex  8.520971e+00 -1.234476e+01  0.000000e+00
   endloop
 endfacet
 facet normal  6.631227e-01 -7.485107e-01  3.864181e-18
   outer loop
     vertex  1.122766e+01 -9.946840e+00  3.000000e+01
     vertex  8.520971e+00 -1.234476e+01  3.000000e+01
     vertex  8.520971e+00 -1.234476e+01  0.000000e+00
   endloop
 endfacet
 facet normal  6.631227e-01 -7.485107e-01  0.000000e+00
   outer loop
     vertex  1.122766e+01 -9.946840e+00  3.000000e+01
     vertex  8.520971e+00 -1.234476e+01  0.000000e+00
     vertex  1.122766e+01 -9.946840e+00  0.000000e+00
   endloop
 endfacet
 facet normal  8.229839e-01 -5.680647e-01  0.000000e+00
   outer loop
     vertex  1.328184e+01 -6.970848e+00  3.000000e+01
     vertex  1.122766e+01 -9.946840e+00  0.000000e+00
     vertex  1.328184e+01 -6.970848e+00  0.000000e+00
   endloop
 endfacet
 facet normal  8.229839e-01 -5.680647e-01  8.481983e-19
   outer loop
     vertex  1.328184e+01 -6.970848e+00  3.000000e+01
     vertex  1.122766e+01 -9.946840e+00  3.000000e+01
     vertex  1.122766e+01 -9.946840e+00  0.000000e+00
   endloop
 endfacet
 facet normal  9.350162e-01 -3.546049e-01  0.000000e+00
   outer loop
     vertex  1.456413e+01 -3.589735e+00  3.000000e+01
     vertex  1.328184e+01 -6.970848e+00  0.000000e+00
     vertex  1.456413e+01 -3.589735e+00  0.000000e+00
   endloop
 endfacet
 facet normal  9.350162e-01 -3.546049e-01  8.197056e-19
   outer loop
     vertex  1.456413e+01 -3.589735e+00  3.000000e+01
     vertex  1.328184e+01 -6.970848e+00  3.000000e+01
     vertex  1.328184e+01 -6.970848e+00  0.000000e+00
   endloop
 endfacet
 facet normal  9.927089e-01 -1.205367e-01  0.000000e+00
   outer loop
     vertex  1.500000e+01 -3.673940e-15  3.000000e+01
     vertex  1.456413e+01 -3.589735e+00  0.000000e+00
     vertex  1.500000e+01 -3.673940e-15  0.000000e+00
   endloop
 endfacet
 facet normal  9.927089e-01 -1.205367e-01 -8.323410e-19
   outer loop
     vertex  1.500000e+01 -3.673940e-15  3.000000e+01
     vertex  1.456413e+01 -3.589735e+00  3.000000e+01
     vertex  1.456413e+01 -3.589735e+00  0.000000e+00
   endloop
 endfacet
 facet normal  0.000000e+00  0.000000e+00  1.000000e+00
   outer loop
     vertex -7.485107e+00 -6.631227e+00  3.000000e+01
     vertex -1.328184e+01 -6.970848e+00  3.000000e+01
     vertex -1.122766e+01 -9.946840e+00  3.000000e+01
   endloop
 endfacet
 facet normal  0.000000e+00  0.000000e+00  1.000000e+00
   outer loop
     vertex -5.680647e+00 -8.229839e+00  3.000000e+01
     vertex -1.122766e+01 -9.946840e+00  3.000000e+01
     vertex -8.520971e+00 -1.234476e+01  3.000000e+01
   endloop
 endfacet
 facet normal  0.000000e+00  0.000000e+00  1.000000e+00
   outer loop
     vertex -5.680647e+00 -8.229839e+00  3.000000e+01
     vertex -7.485107e+00 -6.631227e+00  3.000000e+01
     vertex -1.122766e+01 -9.946840e+00  3.000000e+01
   endloop
 endfacet
 facet normal  0.000000e+00  0.000000e+00  1.000000e+00
   outer loop
     vertex -8.854560e+00 -4.647232e+00  3.000000e+01
     vertex -1.328184e+01 -6.970848e+00  3.000000e+01
     vertex -7.485107e+00 -6.631227e+00  3.000000e+01
   endloop
 endfacet
 facet normal  0.000000e+00  0.000000e+00  1.000000e+00
   outer loop
     vertex -3.546049e+00 -9.350162e+00  3.000000e+01
     vertex -8.520971e+00 -1.234476e+01  3.000000e+01
     vertex -5.319073e+00 -1.402524e+01  3.000000e+01
   endloop
 endfacet
 facet normal  0.000000e+00  0.000000e+00  1.000000e+00
   outer loop
     vertex -3.546049e+00 -9.350162e+00  3.000000e+01
     vertex -5.680647e+00 -8.229839e+00  3.000000e+01
     vertex -8.520971e+00 -1.234476e+01  3.000000e+01
   endloop
 endfacet
 facet normal  0.000000e+00  0.000000e+00  1.000000e+00
   outer loop
     vertex -9.709418e+00 -2.393157e+00  3.000000e+01
     vertex -1.500000e+01  1.515965e-14  3.000000e+01
     vertex -1.456413e+01 -3.589735e+00  3.000000e+01
   endloop
 endfacet
 facet normal  0.000000e+00  0.000000e+00  1.000000e+00
   outer loop
     vertex -9.709418e+00 -2.393157e+00  3.000000e+01
     vertex -1.456413e+01 -3.589735e+00  3.000000e+01
     vertex -1.328184e+01 -6.970848e+00  3.000000e+01
   endloop
 endfacet
 facet normal  0.000000e+00  0.000000e+00  1.000000e+00
   outer loop
     vertex -9.709418e+00 -2.393157e+00  3.000000e+01
     vertex -1.328184e+01 -6.970848e+00  3.000000e+01
     vertex -8.854560e+00 -4.647232e+00  3.000000e+01
   endloop
 endfacet
 facet normal  0.000000e+00  0.000000e+00  1.000000e+00
   outer loop
     vertex -1.205367e+00 -9.927089e+00  3.000000e+01
     vertex -5.319073e+00 -1.402524e+01  3.000000e+01
     vertex -1.808050e+00 -1.489063e+01  3.000000e+01
   endloop
 endfacet
 facet normal  0.000000e+00  0.000000e+00  1.000000e+00
   outer loop
     vertex -1.205367e+00 -9.927089e+00  3.000000e+01
     vertex -3.546049e+00 -9.350162e+00  3.000000e+01
     vertex -5.319073e+00 -1.402524e+01  3.000000e+01
   endloop
 endfacet
 facet normal  0.000000e+00  0.000000e+00  1.000000e+00
   outer loop
     vertex -1.000000e+01  1.010643e-14  3.000000e+01
     vertex -1.500000e+01  1.515965e-14  3.000000e+01
     vertex -9.709418e+00 -2.393157e+00  3.000000e+01
   endloop
 endfacet
 facet normal  0.000000e+00  0.000000e+00  1.000000e+00
   outer loop
     vertex  1.205367e+00 -9.927089e+00  3.000000e+01
     vertex -1.808050e+00 -1.489063e+01  3.000000e+01
     vertex  1.808050e+00 -1.489063e+01  3.000000e+01
   endloop
 endfacet
 facet normal  0.000000e+00  0.000000e+00  1.000000e+00
   outer loop
     vertex  1.205367e+00 -9.927089e+00  3.000000e+01
     vertex -1.205367e+00 -9.927089e+00  3.000000e+01
     vertex -1.808050e+00 -1.489063e+01  3.000000e+01
   endloop
 endfacet
 facet normal  0.000000e+00  0.000000e+00  1.000000e+00
   outer loop
     vertex  5.319073e+00 -1.402524e+01  3.000000e+01
     vertex  1.205367e+00 -9.927089e+00  3.000000e+01
     vertex  1.808050e+00 -1.489063e+01  3.000000e+01
   endloop
 endfacet
 facet normal  0.000000e+00  0.000000e+00  1.000000e+00
   outer loop
     vertex -9.709418e+00  2.393157e+00  3.000000e+01
     vertex -1.456413e+01  3.589735e+00  3.000000e+01
     vertex -1.500000e+01  1.515965e-14  3.000000e+01
   endloop
 endfacet
 facet normal  0.000000e+00  0.000000e+00  1.000000e+00
   outer loop
     vertex -9.709418e+00  2.393157e+00  3.000000e+01
     vertex -1.500000e+01  1.515965e-14  3.000000e+01
     vertex -1.000000e+01  1.010643e-14  3.000000e+01
   endloop
 endfacet
 facet normal  0.000000e+00  0.000000e+00  1.000000e+00
   outer loop
     vertex  3.546049e+00 -9.350162e+00  3.000000e+01
     vertex  1.205367e+00 -9.927089e+00  3.000000e+01
     vertex  5.319073e+00 -1.402524e+01  3.000000e+01
   endloop
 endfacet
 facet normal  0.000000e+00  0.000000e+00  1.000000e+00
   outer loop
     vertex -8.854560e+00  4.647232e+00  3.000000e+01
     vertex -1.328184e+01  6.970848e+00  3.000000e+01
     vertex -1.456413e+01  3.589735e+00  3.000000e+01
   endloop
 endfacet
 facet normal  0.000000e+00  0.000000e+00  1.000000e+00
   outer loop
     vertex -8.854560e+00  4.647232e+00  3.000000e+01
     vertex -1.456413e+01  3.589735e+00  3.000000e+01
     vertex -9.709418e+00  2.393157e+00  3.000000e+01
   endloop
 endfacet
 facet normal  0.000000e+00  0.000000e+00  1.000000e+00
   outer loop
     vertex  5.680647e+00 -8.229839e+00  3.000000e+01
     vertex  5.319073e+00 -1.402524e+01  3.000000e+01
     vertex  8.520971e+00 -1.234476e+01  3.000000e+01
   endloop
 endfacet
 facet normal  0.000000e+00  0.000000e+00  1.000000e+00
   outer loop
     vertex  5.680647e+00 -8.229839e+00  3.000000e+01
     vertex  3.546049e+00 -9.350162e+00  3.000000e+01
     vertex  5.319073e+00 -1.402524e+01  3.000000e+01
   endloop
 endfacet
 facet normal  0.000000e+00  0.000000e+00  1.000000e+00
   outer loop
     vertex -7.485107e+00  6.631227e+00  3.000000e+01
     vertex -1.122766e+01  9.946840e+00  3.000000e+01
     vertex -1.328184e+01  6.970848e+00  3.000000e+01
   endloop
 endfacet
 facet normal  0.000000e+00  0.000000e+00  1.000000e+00
   outer loop
     vertex -7.485107e+00  6.631227e+00  3.000000e+01
     vertex -1.328184e+01  6.970848e+00  3.000000e+01
     vertex -8.854560e+00  4.647232e+00  3.000000e+01
   endloop
 endfacet
 facet normal  0.000000e+00  0.000000e+00  1.000000e+00
   outer loop
     vertex  1.122766e+01 -9.946840e+00  3.000000e+01
     vertex  5.680647e+00 -8.229839e+00  3.000000e+01
     vertex  8.520971e+00 -1.234476e+01  3.000000e+01
   endloop
 endfacet
 facet normal  0.000000e+00  0.000000e+00  1.000000e+00
   outer loop
     vertex  1.122766e+01 -9.946840e+00  3.000000e+01
     vertex  7.485107e+00 -6.631227e+00  3.000000e+01
     vertex  5.680647e+00 -8.229839e+00  3.000000e+01
   endloop
 endfacet
 facet normal  0.000000e+00  0.000000e+00  1.000000e+00
   outer loop
     vertex -5.680647e+00  8.229839e+00  3.000000e+01
     vertex -1.122766e+01  9.946840e+00  3.000000e+01
     vertex -7.485107e+00  6.631227e+00  3.000000e+01
   endloop
 endfacet
 facet normal  0.000000e+00  0.000000e+00  1.000000e+00
   outer loop
     vertex -8.520971e+00  1.234476e+01  3.000000e+01
     vertex -1.122766e+01  9.946840e+00  3.000000e+01
     vertex -5.680647e+00  8.229839e+00  3.000000e+01
   endloop
 endfacet
 facet normal  0.000000e+00  0.000000e+00  1.000000e+00
   outer loop
     vertex -3.546049e+00  9.350162e+00  3.000000e+01
     vertex -8.520971e+00  1.234476e+01  3.000000e+01
     vertex -5.680647e+00  8.229839e+00  3.000000e+01
   endloop
 endfacet
 facet normal  0.000000e+00  0.000000e+00  1.000000e+00
   outer loop
     vertex  1.328184e+01 -6.970848e+00  3.000000e+01
     vertex  7.485107e+00 -6.631227e+00  3.000000e+01
     vertex  1.122766e+01 -9.946840e+00  3.000000e+01
   endloop
 endfacet
 facet normal  0.000000e+00  0.000000e+00  1.000000e+00
   outer loop
     vertex  1.328184e+01 -6.970848e+00  3.000000e+01
     vertex  8.854560e+00 -4.647232e+00  3.000000e+01
     vertex  7.485107e+00 -6.631227e+00  3.000000e+01
   endloop
 endfacet
 facet normal  0.000000e+00  0.000000e+00  1.000000e+00
   outer loop
     vertex  9.709418e+00 -2.393157e+00  3.000000e+01
     vertex  8.854560e+00 -4.647232e+00  3.000000e+01
     vertex  1.328184e+01 -6.970848e+00  3.000000e+01
   endloop
 endfacet
 facet normal  0.000000e+00  0.000000e+00  1.000000e+00
   outer loop
     vertex -5.319073e+00  1.402524e+01  3.000000e+01
     vertex -8.520971e+00  1.234476e+01  3.000000e+01
     vertex -3.546049e+00  9.350162e+00  3.000000e+01
   endloop
 endfacet
 facet normal  0.000000e+00  0.000000e+00  1.000000e+00
   outer loop
     vertex  1.456413e+01 -3.589735e+00  3.000000e+01
     vertex  9.709418e+00 -2.393157e+00  3.000000e+01
     vertex  1.328184e+01 -6.970848e+00  3.000000e+01
   endloop
 endfacet
 facet normal  0.000000e+00  0.000000e+00  1.000000e+00
   outer loop
     vertex  1.456413e+01 -3.589735e+00  3.000000e+01
     vertex  1.000000e+01 -2.449294e-15  3.000000e+01
     vertex  9.709418e+00 -2.393157e+00  3.000000e+01
   endloop
 endfacet
 facet normal  0.000000e+00  0.000000e+00  1.000000e+00
   outer loop
     vertex -1.808050e+00  1.489063e+01  3.000000e+01
     vertex -5.319073e+00  1.402524e+01  3.000000e+01
     vertex -3.546049e+00  9.350162e+00  3.000000e+01
   endloop
 endfacet
 facet normal  0.000000e+00  0.000000e+00  1.000000e+00
   outer loop
     vertex -1.808050e+00  1.489063e+01  3.000000e+01
     vertex -1.205367e+00  9.927089e+00  3.000000e+01
     vertex  1.205367e+00  9.927089e+00  3.000000e+01
   endloop
 endfacet
 facet normal  0.000000e+00  0.000000e+00  1.000000e+00
   outer loop
     vertex -1.808050e+00  1.489063e+01  3.000000e+01
     vertex -3.546049e+00  9.350162e+00  3.000000e+01
     vertex -1.205367e+00  9.927089e+00  3.000000e+01
   endloop
 endfacet
 facet normal  0.000000e+00  0.000000e+00  1.000000e+00
   outer loop
     vertex  1.500000e+01 -3.673940e-15  3.000000e+01
     vertex  1.000000e+01 -2.449294e-15  3.000000e+01
     vertex  1.456413e+01 -3.589735e+00  3.000000e+01
   endloop
 endfacet
 facet normal  0.000000e+00  0.000000e+00  1.000000e+00
   outer loop
     vertex  1.808050e+00  1.489063e+01  3.000000e+01
     vertex -1.808050e+00  1.489063e+01  3.000000e+01
     vertex  1.205367e+00  9.927089e+00  3.000000e+01
   endloop
 endfacet
 facet normal  0.000000e+00  0.000000e+00  1.000000e+00
   outer loop
     vertex  1.456413e+01  3.589735e+00  3.000000e+01
     vertex  9.709418e+00  2.393157e+00  3.000000e+01
     vertex  1.000000e+01 -2.449294e-15  3.000000e+01
   endloop
 endfacet
 facet normal  0.000000e+00  0.000000e+00  1.000000e+00
   outer loop
     vertex  1.456413e+01  3.589735e+00  3.000000e+01
     vertex  8.854560e+00  4.647232e+00  3.000000e+01
     vertex  9.709418e+00  2.393157e+00  3.000000e+01
   endloop
 endfacet
 facet normal  0.000000e+00  0.000000e+00  1.000000e+00
   outer loop
     vertex  1.456413e+01  3.589735e+00  3.000000e+01
     vertex  1.000000e+01 -2.449294e-15  3.000000e+01
     vertex  1.500000e+01 -3.673940e-15  3.000000e+01
   endloop
 endfacet
 facet normal  0.000000e+00  0.000000e+00  1.000000e+00
   outer loop
     vertex  5.319073e+00  1.402524e+01  3.000000e+01
     vertex  3.546049e+00  9.350162e+00  3.000000e+01
     vertex  5.680647e+00  8.229839e+00  3.000000e+01
   endloop
 endfacet
 facet normal  0.000000e+00  0.000000e+00  1.000000e+00
   outer loop
     vertex  5.319073e+00  1.402524e+01  3.000000e+01
     vertex  1.205367e+00  9.927089e+00  3.000000e+01
     vertex  3.546049e+00  9.350162e+00  3.000000e+01
   endloop
 endfacet
 facet normal  0.000000e+00  0.000000e+00  1.000000e+00
   outer loop
     vertex  5.319073e+00  1.402524e+01  3.000000e+01
     vertex  1.808050e+00  1.489063e+01  3.000000e+01
     vertex  1.205367e+00  9.927089e+00  3.000000e+01
   endloop
 endfacet
 facet normal  0.000000e+00  0.000000e+00  1.000000e+00
   outer loop
     vertex  1.328184e+01  6.970848e+00  3.000000e+01
     vertex  8.854560e+00  4.647232e+00  3.000000e+01
     vertex  1.456413e+01  3.589735e+00  3.000000e+01
   endloop
 endfacet
 facet normal  0.000000e+00  0.000000e+00  1.000000e+00
   outer loop
     vertex  8.520971e+00  1.234476e+01  3.000000e+01
     vertex  5.319073e+00  1.402524e+01  3.000000e+01
     vertex  5.680647e+00  8.229839e+00  3.000000e+01
   endloop
 endfacet
 facet normal  0.000000e+00  0.000000e+00  1.000000e+00
   outer loop
     vertex  1.122766e+01  9.946840e+00  3.000000e+01
     vertex  8.854560e+00  4.647232e+00  3.000000e+01
     vertex  1.328184e+01  6.970848e+00  3.000000e+01
   endloop
 endfacet
 facet normal  0.000000e+00  0.000000e+00  1.000000e+00
   outer loop
     vertex  1.122766e+01  9.946840e+00  3.000000e+01
     vertex  7.485107e+00  6.631227e+00  3.000000e+01
     vertex  8.854560e+00  4.647232e+00  3.000000e+01
   endloop
 endfacet
 facet normal  0.000000e+00  0.000000e+00  1.000000e+00
   outer loop
     vertex  1.122766e+01  9.946840e+00  3.000000e+01
     vertex  5.680647e+00  8.229839e+00  3.000000e+01
     vertex  7.485107e+00  6.631227e+00  3.000000e+01
   endloop
 endfacet
 facet normal  0.000000e+00  0.000000e+00  1.000000e+00
   outer loop
     vertex  1.122766e+01  9.946840e+00  3.000000e+01
     vertex  8.520971e+00  1.234476e+01  3.000000e+01
     vertex  5.680647e+00  8.229839e+00  3.000000e+01
   endloop
 endfacet
 facet normal  0.000000e+00  0.000000e+00 -1.000000e+00
   outer loop
     vertex -1.500000e+01  1.515965e-14  0.000000e+00
     vertex -1.328184e+01 -6.970848e+00  0.000000e+00
     vertex -1.456413e+01 -3.589735e+00  0.000000e+00
   endloop
 endfacet
 facet normal  0.000000e+00  0.000000e+00 -1.000000e+00
   outer loop
     vertex  1.808050e+00 -1.489063e+01  0.000000e+00
     vertex -1.808050e+00 -1.489063e+01  0.000000e+00
     vertex -5.319073e+00 -1.402524e+01  0.000000e+00
   endloop
 endfacet
 facet normal  0.000000e+00  0.000000e+00 -1.000000e+00
   outer loop
     vertex  8.520971e+00 -1.234476e+01  0.000000e+00
     vertex  5.319073e+00 -1.402524e+01  0.000000e+00
     vertex  1.808050e+00 -1.489063e+01  0.000000e+00
   endloop
 endfacet
 facet normal  0.000000e+00  0.000000e+00 -1.000000e+00
   outer loop
     vertex -8.520971e+00  1.234476e+01  0.000000e+00
     vertex -1.328184e+01  6.970848e+00  0.000000e+00
     vertex -1.122766e+01  9.946840e+00  0.000000e+00
   endloop
 endfacet
 facet normal  0.000000e+00  0.000000e+00 -1.000000e+00
   outer loop
     vertex -8.520971e+00  1.234476e+01  0.000000e+00
     vertex -1.456413e+01  3.589735e+00  0.000000e+00
     vertex -1.328184e+01  6.970848e+00  0.000000e+00
   endloop
 endfacet
 facet normal  0.000000e+00  0.000000e+00 -1.000000e+00
   outer loop
     vertex  1.328184e+01 -6.970848e+00  0.000000e+00
     vertex -8.520971e+00 -1.234476e+01  0.000000e+00
     vertex -1.122766e+01 -9.946840e+00  0.000000e+00
   endloop
 endfacet
 facet normal  0.000000e+00  0.000000e+00 -1.000000e+00
   outer loop
     vertex  1.328184e+01 -6.970848e+00  0.000000e+00
     vertex -5.319073e+00 -1.402524e+01  0.000000e+00
     vertex -8.520971e+00 -1.234476e+01  0.000000e+00
   endloop
 endfacet
 facet normal  0.000000e+00  0.000000e+00 -1.000000e+00
   outer loop
     vertex  1.328184e+01 -6.970848e+00  0.000000e+00
     vertex  1.122766e+01 -9.946840e+00  0.000000e+00
     vertex  8.520971e+00 -1.234476e+01  0.000000e+00
   endloop
 endfacet
 facet normal  0.000000e+00  0.000000e+00 -1.000000e+00
   outer loop
     vertex  1.328184e+01 -6.970848e+00  0.000000e+00
     vertex  1.808050e+00 -1.489063e+01  0.000000e+00
     vertex -5.319073e+00 -1.402524e+01  0.000000e+00
   endloop
 endfacet
 facet normal  0.000000e+00  0.000000e+00 -1.000000e+00
   outer loop
     vertex  1.328184e+01 -6.970848e+00  0.000000e+00
     vertex  8.520971e+00 -1.234476e+01  0.000000e+00
     vertex  1.808050e+00 -1.489063e+01  0.000000e+00
   endloop
 endfacet
 facet normal  0.000000e+00  0.000000e+00 -1.000000e+00
   outer loop
     vertex  1.456413e+01 -3.589735e+00  0.000000e+00
     vertex -1.500000e+01  1.515965e-14  0.000000e+00
     vertex -1.456413e+01  3.589735e+00  0.000000e+00
   endloop
 endfacet
 facet normal  0.000000e+00  0.000000e+00 -1.000000e+00
   outer loop
     vertex  1.456413e+01 -3.589735e+00  0.000000e+00
     vertex -1.122766e+01 -9.946840e+00  0.000000e+00
     vertex -1.328184e+01 -6.970848e+00  0.000000e+00
   endloop
 endfacet
 facet normal -0.000000e+00  0.000000e+00 -1.000000e+00
   outer loop
     vertex  1.456413e+01 -3.589735e+00  0.000000e+00
     vertex -1.328184e+01 -6.970848e+00  0.000000e+00
     vertex -1.500000e+01  1.515965e-14  0.000000e+00
   endloop
 endfacet
 facet normal  0.000000e+00  0.000000e+00 -1.000000e+00
   outer loop
     vertex  1.456413e+01 -3.589735e+00  0.000000e+00
     vertex  1.328184e+01 -6.970848e+00  0.000000e+00
     vertex -1.122766e+01 -9.946840e+00  0.000000e+00
   endloop
 endfacet
 facet normal  0.000000e+00  0.000000e+00 -1.000000e+00
   outer loop
     vertex -1.808050e+00  1.489063e+01  0.000000e+00
     vertex -8.520971e+00  1.234476e+01  0.000000e+00
     vertex -5.319073e+00  1.402524e+01  0.000000e+00
   endloop
 endfacet
 facet normal  0.000000e+00 -0.000000e+00 -1.000000e+00
   outer loop
     vertex  1.456413e+01  3.589735e+00  0.000000e+00
     vertex  1.500000e+01 -3.673940e-15  0.000000e+00
     vertex  1.456413e+01 -3.589735e+00  0.000000e+00
   endloop
 endfacet
 facet normal  0.000000e+00  0.000000e+00 -1.000000e+00
   outer loop
     vertex  5.319073e+00  1.402524e+01  0.000000e+00
     vertex -1.808050e+00  1.489063e+01  0.000000e+00
     vertex  1.808050e+00  1.489063e+01  0.000000e+00
   endloop
 endfacet
 facet normal  0.000000e+00  0.000000e+00 -1.000000e+00
   outer loop
     vertex  1.328184e+01  6.970848e+00  0.000000e+00
     vertex  1.456413e+01  3.589735e+00  0.000000e+00
     vertex  1.456413e+01 -3.589735e+00  0.000000e+00
   endloop
 endfacet
 facet normal  0.000000e+00  0.000000e+00 -1.000000e+00
   outer loop
     vertex  1.122766e+01  9.946840e+00  0.000000e+00
     vertex  5.319073e+00  1.402524e+01  0.000000e+00
     vertex  8.520971e+00  1.234476e+01  0.000000e+00
   endloop
 endfacet
 facet normal  0.000000e+00  0.000000e+00 -1.000000e+00
   outer loop
     vertex  1.122766e+01  9.946840e+00  0.000000e+00
     vertex -8.520971e+00  1.234476e+01  0.000000e+00
     vertex -1.808050e+00  1.489063e+01  0.000000e+00
   endloop
 endfacet
 facet normal -0.000000e+00  0.000000e+00 -1.000000e+00
   outer loop
     vertex  1.122766e+01  9.946840e+00  0.000000e+00
     vertex -1.456413e+01  3.589735e+00  0.000000e+00
     vertex -8.520971e+00  1.234476e+01  0.000000e+00
   endloop
 endfacet
 facet normal  0.000000e+00 -0.000000e+00 -1.000000e+00
   outer loop
     vertex  1.122766e+01  9.946840e+00  0.000000e+00
     vertex  1.456413e+01 -3.589735e+00  0.000000e+00
     vertex -1.456413e+01  3.589735e+00  0.000000e+00
   endloop
 endfacet
 facet normal  0.000000e+00  0.000000e+00 -1.000000e+00
   outer loop
     vertex  1.122766e+01  9.946840e+00  0.000000e+00
     vertex -1.808050e+00  1.489063e+01  0.000000e+00
     vertex  5.319073e+00  1.402524e+01  0.000000e+00
   endloop
 endfacet
 facet normal  0.000000e+00  0.000000e+00 -1.000000e+00
   outer loop
     vertex  1.122766e+01  9.946840e+00  0.000000e+00
     vertex  1.328184e+01  6.970848e+00  0.000000e+00
     vertex  1.456413e+01 -3.589735e+00  0.000000e+00
   endloop
 endfacet
 facet normal  9.927089e-01  1.205367e-01  0.000000e+00
   outer loop
     vertex  1.000000e+01 -2.449294e-15  7.000000e+01
     vertex  1.000000e+01 -2.449294e-15  3.000000e+01
     vertex  9.709418e+00  2.393157e+00  3.000000e+01
   endloop
 endfacet
 facet normal  9.927089e-01  1.205367e-01  0.000000e+00
   outer loop
     vertex  9.709418e+00  2.393157e+00  7.000000e+01
     vertex  1.000000e+01 -2.449294e-15  7.000000e+01
     vertex  9.709418e+00  2.393157e+00  3.000000e+01
   endloop
 endfacet
 facet normal  9.350162e-01  3.546049e-01  0.000000e+00
   outer loop
     vertex  8.854560e+00  4.647232e+00  7.000000e+01
     vertex  9.709418e+00  2.393157e+00  3.000000e+01
     vertex  8.854560e+00  4.647232e+00  3.000000e+01
   endloop
 endfacet
 facet normal  8.229839e-01  5.680647e-01  0.000000e+00
   outer loop
     vertex  8.854560e+00  4.647232e+00  7.000000e+01
     vertex  8.854560e+00  4.647232e+00  3.000000e+01
     vertex  7.485107e+00  6.631227e+00  3.000000e+01
   endloop
 endfacet
 facet normal  9.350162e-01  3.546049e-01 -3.002601e-19
   outer loop
     vertex  8.854560e+00  4.647232e+00  7.000000e+01
     vertex  9.709418e+00  2.393157e+00  7.000000e+01
     vertex  9.709418e+00  2.393157e+00  3.000000e+01
   endloop
 endfacet
 facet normal  8.229839e-01  5.680647e-01  0.000000e+00
   outer loop
     vertex  7.485107e+00  6.631227e+00  7.000000e+01
     vertex  8.854560e+00  4.647232e+00  7.000000e+01
     vertex  7.485107e+00  6.631227e+00  3.000000e+01
   endloop
 endfacet
 facet normal  6.631227e-01  7.485107e-01  0.000000e+00
   outer loop
     vertex  5.680647e+00  8.229839e+00  7.000000e+01
     vertex  7.485107e+00  6.631227e+00  3.000000e+01
     vertex  5.680647e+00  8.229839e+00  3.000000e+01
   endloop
 endfacet
 facet normal  6.631227e-01  7.485107e-01 -1.261979e-18
   outer loop
     vertex  5.680647e+00  8.229839e+00  7.000000e+01
     vertex  7.485107e+00  6.631227e+00  7.000000e+01
     vertex  7.485107e+00  6.631227e+00  3.000000e+01
   endloop
 endfacet
 facet normal  4.647232e-01  8.854560e-01  0.000000e+00
   outer loop
     vertex  3.546049e+00  9.350162e+00  7.000000e+01
     vertex  5.680647e+00  8.229839e+00  3.000000e+01
     vertex  3.546049e+00  9.350162e+00  3.000000e+01
   endloop
 endfacet
 facet normal  2.393157e-01  9.709418e-01  0.000000e+00
   outer loop
     vertex  3.546049e+00  9.350162e+00  7.000000e+01
     vertex  3.546049e+00  9.350162e+00  3.000000e+01
     vertex  1.205367e+00  9.927089e+00  3.000000e+01
   endloop
 endfacet
 facet normal  4.647232e-01  8.854560e-01 -6.674323e-19
   outer loop
     vertex  3.546049e+00  9.350162e+00  7.000000e+01
     vertex  5.680647e+00  8.229839e+00  7.000000e+01
     vertex  5.680647e+00  8.229839e+00  3.000000e+01
   endloop
 endfacet
 facet normal  2.393157e-01  9.709418e-01  0.000000e+00
   outer loop
     vertex  1.205367e+00  9.927089e+00  7.000000e+01
     vertex  3.546049e+00  9.350162e+00  7.000000e+01
     vertex  1.205367e+00  9.927089e+00  3.000000e+01
   endloop
 endfacet
 facet normal  0.000000e+00  1.000000e+00  0.000000e+00
   outer loop
     vertex -1.205367e+00  9.927089e+00  7.000000e+01
     vertex  1.205367e+00  9.927089e+00  3.000000e+01
     vertex -1.205367e+00  9.927089e+00  3.000000e+01
   endloop
 endfacet
 facet normal -0.000000e+00  1.000000e+00  0.000000e+00
   outer loop
     vertex -1.205367e+00  9.927089e+00  7.000000e+01
     vertex  1.205367e+00  9.927089e+00  7.000000e+01
     vertex  1.205367e+00  9.927089e+00  3.000000e+01
   endloop
 endfacet
 facet normal -2.393157e-01  9.709418e-01  0.000000e+00
   outer loop
     vertex -3.546049e+00  9.350162e+00  7.000000e+01
     vertex -1.205367e+00  9.927089e+00  3.000000e+01
     vertex -3.546049e+00  9.350162e+00  3.000000e+01
   endloop
 endfacet
 facet normal -4.647232e-01  8.854560e-01  0.000000e+00
   outer loop
     vertex -3.546049e+00  9.350162e+00  7.000000e+01
     vertex -3.546049e+00  9.350162e+00  3.000000e+01
     vertex -5.680647e+00  8.229839e+00  3.000000e+01
   endloop
 endfacet
 facet normal -2.393157e-01  9.709418e-01 -3.301069e-19
   outer loop
     vertex -3.546049e+00  9.350162e+00  7.000000e+01
     vertex -1.205367e+00  9.927089e+00  7.000000e+01
     vertex -1.205367e+00  9.927089e+00  3.000000e+01
   endloop
 endfacet
 facet normal -4.647232e-01  8.854560e-01  0.000000e+00
   outer loop
     vertex -5.680647e+00  8.229839e+00  7.000000e+01
     vertex -3.546049e+00  9.350162e+00  7.000000e+01
     vertex -5.680647e+00  8.229839e+00  3.000000e+01
   endloop
 endfacet
 facet normal -6.631227e-01  7.485107e-01  0.000000e+00
   outer loop
     vertex -7.485107e+00  6.631227e+00  7.000000e+01
     vertex -5.680647e+00  8.229839e+00  3.000000e+01
     vertex -7.485107e+00  6.631227e+00  3.000000e+01
   endloop
 endfacet
 facet normal -8.229839e-01  5.680647e-01  0.000000e+00
   outer loop
     vertex -7.485107e+00  6.631227e+00  7.000000e+01
     vertex -7.485107e+00  6.631227e+00  3.000000e+01
     vertex -8.854560e+00  4.647232e+00  3.000000e+01
   endloop
 endfacet
 facet normal -6.631227e-01  7.485107e-01  2.139237e-18
   outer loop
     vertex -7.485107e+00  6.631227e+00  7.000000e+01
     vertex -5.680647e+00  8.229839e+00  7.000000e+01
     vertex -5.680647e+00  8.229839e+00  3.000000e+01
   endloop
 endfacet
 facet normal -8.229839e-01  5.680647e-01  0.000000e+00
   outer loop
     vertex -8.854560e+00  4.647232e+00  7.000000e+01
     vertex -7.485107e+00  6.631227e+00  7.000000e+01
     vertex -8.854560e+00  4.647232e+00  3.000000e+01
   endloop
 endfacet
 facet normal -9.350162e-01  3.546049e-01  0.000000e+00
   outer loop
     vertex -8.854560e+00  4.647232e+00  7.000000e+01
     vertex -8.854560e+00  4.647232e+00  3.000000e+01
     vertex -9.709418e+00  2.393157e+00  3.000000e+01
   endloop
 endfacet
 facet normal -9.350162e-01  3.546049e-01  0.000000e+00
   outer loop
     vertex -9.709418e+00  2.393157e+00  7.000000e+01
     vertex -8.854560e+00  4.647232e+00  7.000000e+01
     vertex -9.709418e+00  2.393157e+00  3.000000e+01
   endloop
 endfacet
 facet normal -9.927089e-01  1.205367e-01  1.871905e-19
   outer loop
     vertex -1.000000e+01  1.010643e-14  7.000000e+01
     vertex -9.709418e+00  2.393157e+00  7.000000e+01
     vertex -9.709418e+00  2.393157e+00  3.000000e+01
   endloop
 endfacet
 facet normal -9.927089e-01  1.205367e-01  0.000000e+00
   outer loop
     vertex -1.000000e+01  1.010643e-14  7.000000e+01
     vertex -9.709418e+00  2.393157e+00  3.000000e+01
     vertex -1.000000e+01  1.010643e-14  3.000000e+01
   endloop
 endfacet
 facet normal -9.927089e-01 -1.205367e-01 -5.220079e-19
   outer loop
     vertex -9.709418e+00 -2.393157e+00  7.000000e+01
     vertex -1.000000e+01  1.010643e-14  7.000000e+01
     vertex -1.000000e+01  1.010643e-14  3.000000e+01
   endloop
 endfacet
 facet normal -9.927089e-01 -1.205367e-01 -0.000000e+00
   outer loop
     vertex -9.709418e+00 -2.393157e+00  7.000000e+01
     vertex -1.000000e+01  1.010643e-14  3.000000e+01
     vertex -9.709418e+00 -2.393157e+00  3.000000e+01
   endloop
 endfacet
 facet normal -9.350162e-01 -3.546049e-01 -8.936193e-19
   outer loop
     vertex -8.854560e+00 -4.647232e+00  7.000000e+01
     vertex -9.709418e+00 -2.393157e+00  7.000000e+01
     vertex -9.709418e+00 -2.393157e+00  3.000000e+01
   endloop
 endfacet
 facet normal -9.350162e-01 -3.546049e-01 -0.000000e+00
   outer loop
     vertex -8.854560e+00 -4.647232e+00  7.000000e+01
     vertex -9.709418e+00 -2.393157e+00  3.000000e+01
     vertex -8.854560e+00 -4.647232e+00  3.000000e+01
   endloop
 endfacet
 facet normal -8.229839e-01 -5.680647e-01 -1.976001e-18
   outer loop
     vertex -7.485107e+00 -6.631227e+00  7.000000e+01
     vertex -8.854560e+00 -4.647232e+00  7.000000e+01
     vertex -8.854560e+00 -4.647232e+00  3.000000e+01
   endloop
 endfacet
 facet normal -8.229839e-01 -5.680647e-01 -0.000000e+00
   outer loop
     vertex -7.485107e+00 -6.631227e+00  7.000000e+01
     vertex -8.854560e+00 -4.647232e+00  3.000000e+01
     vertex -7.485107e+00 -6.631227e+00  3.000000e+01
   endloop
 endfacet
 facet normal -6.631227e-01 -7.485107e-01  2.181266e-18
   outer loop
     vertex -5.680647e+00 -8.229839e+00  7.000000e+01
     vertex -7.485107e+00 -6.631227e+00  7.000000e+01
     vertex -7.485107e+00 -6.631227e+00  3.000000e+01
   endloop
 endfacet
 facet normal -6.631227e-01 -7.485107e-01 -0.000000e+00
   outer loop
     vertex -5.680647e+00 -8.229839e+00  7.000000e+01
     vertex -7.485107e+00 -6.631227e+00  3.000000e+01
     vertex -5.680647e+00 -8.229839e+00  3.000000e+01
   endloop
 endfacet
 facet normal -4.647232e-01 -8.854560e-01 -9.303936e-19
   outer loop
     vertex -3.546049e+00 -9.350162e+00  7.000000e+01
     vertex -5.680647e+00 -8.229839e+00  7.000000e+01
     vertex -5.680647e+00 -8.229839e+00  3.000000e+01
   endloop
 endfacet
 facet normal -4.647232e-01 -8.854560e-01 -0.000000e+00
   outer loop
     vertex -3.546049e+00 -9.350162e+00  7.000000e+01
     vertex -5.680647e+00 -8.229839e+00  3.000000e+01
     vertex -3.546049e+00 -9.350162e+00  3.000000e+01
   endloop
 endfacet
 facet normal -2.393157e-01 -9.709418e-01 -1.766917e-19
   outer loop
     vertex -1.205367e+00 -9.927089e+00  7.000000e+01
     vertex -3.546049e+00 -9.350162e+00  7.000000e+01
     vertex -3.546049e+00 -9.350162e+00  3.000000e+01
   endloop
 endfacet
 facet normal -2.393157e-01 -9.709418e-01 -0.000000e+00
   outer loop
     vertex -1.205367e+00 -9.927089e+00  7.000000e+01
     vertex -3.546049e+00 -9.350162e+00  3.000000e+01
     vertex -1.205367e+00 -9.927089e+00  3.000000e+01
   endloop
 endfacet
 facet normal -2.947413e-15 -1.000000e+00  0.000000e+00
   outer loop
     vertex  1.205367e+00 -9.927089e+00  7.000000e+01
     vertex -1.205367e+00 -9.927089e+00  7.000000e+01
     vertex -1.205367e+00 -9.927089e+00  3.000000e+01
   endloop
 endfacet
 facet normal -2.947413e-15 -1.000000e+00 -0.000000e+00
   outer loop
     vertex  1.205367e+00 -9.927089e+00  7.000000e+01
     vertex -1.205367e+00 -9.927089e+00  3.000000e+01
     vertex  1.205367e+00 -9.927089e+00  3.000000e+01
   endloop
 endfacet
 facet normal  2.393157e-01 -9.709418e-01 -8.125878e-19
   outer loop
     vertex  3.546049e+00 -9.350162e+00  7.000000e+01
     vertex  1.205367e+00 -9.927089e+00  7.000000e+01
     vertex  1.205367e+00 -9.927089e+00  3.000000e+01
   endloop
 endfacet
 facet normal  2.393157e-01 -9.709418e-01  0.000000e+00
   outer loop
     vertex  3.546049e+00 -9.350162e+00  7.000000e+01
     vertex  1.205367e+00 -9.927089e+00  3.000000e+01
     vertex  3.546049e+00 -9.350162e+00  3.000000e+01
   endloop
 endfacet
 facet normal  4.647232e-01 -8.854560e-01  0.000000e+00
   outer loop
     vertex  3.546049e+00 -9.350162e+00  7.000000e+01
     vertex  3.546049e+00 -9.350162e+00  3.000000e+01
     vertex  5.680647e+00 -8.229839e+00  3.000000e+01
   endloop
 endfacet
 facet normal  4.647232e-01 -8.854560e-01  0.000000e+00
   outer loop
     vertex  5.680647e+00 -8.229839e+00  7.000000e+01
     vertex  3.546049e+00 -9.350162e+00  7.000000e+01
     vertex  5.680647e+00 -8.229839e+00  3.000000e+01
   endloop
 endfacet
 facet normal  6.631227e-01 -7.485107e-01 -1.827130e-18
   outer loop
     vertex  7.485107e+00 -6.631227e+00  7.000000e+01
     vertex  5.680647e+00 -8.229839e+00  7.000000e+01
     vertex  5.680647e+00 -8.229839e+00  3.000000e+01
   endloop
 endfacet
 facet normal  6.631227e-01 -7.485107e-01  0.000000e+00
   outer loop
     vertex  7.485107e+00 -6.631227e+00  7.000000e+01
     vertex  5.680647e+00 -8.229839e+00  3.000000e+01
     vertex  7.485107e+00 -6.631227e+00  3.000000e+01
   endloop
 endfacet
 facet normal  8.229839e-01 -5.680647e-01  0.000000e+00
   outer loop
     vertex  8.854560e+00 -4.647232e+00  7.000000e+01
     vertex  7.485107e+00 -6.631227e+00  3.000000e+01
     vertex  8.854560e+00 -4.647232e+00  3.000000e+01
   endloop
 endfacet
 facet normal  8.229839e-01 -5.680647e-01 -5.866921e-19
   outer loop
     vertex  8.854560e+00 -4.647232e+00  7.000000e+01
     vertex  7.485107e+00 -6.631227e+00  7.000000e+01
     vertex  7.485107e+00 -6.631227e+00  3.000000e+01
   endloop
 endfacet
 facet normal  9.350162e-01 -3.546049e-01  0.000000e+00
   outer loop
     vertex  9.709418e+00 -2.393157e+00  7.000000e+01
     vertex  8.854560e+00 -4.647232e+00  3.000000e+01
     vertex  9.709418e+00 -2.393157e+00  3.000000e+01
   endloop
 endfacet
 facet normal  9.350162e-01 -3.546049e-01  1.045238e-18
   outer loop
     vertex  9.709418e+00 -2.393157e+00  7.000000e+01
     vertex  8.854560e+00 -4.647232e+00  7.000000e+01
     vertex  8.854560e+00 -4.647232e+00  3.000000e+01
   endloop
 endfacet
 facet normal  9.927089e-01 -1.205367e-01  0.000000e+00
   outer loop
     vertex  1.000000e+01 -2.449294e-15  7.000000e+01
     vertex  9.709418e+00 -2.393157e+00  3.000000e+01
     vertex  1.000000e+01 -2.449294e-15  3.000000e+01
   endloop
 endfacet
 facet normal  9.927089e-01 -1.205367e-01 -1.595671e-20
   outer loop
     vertex  1.000000e+01 -2.449294e-15  7.000000e+01
     vertex  9.709418e+00 -2.393157e+00  7.000000e+01
     vertex  9.709418e+00 -2.393157e+00  3.000000e+01
   endloop
 endfacet
 facet normal  0.000000e+00  0.000000e+00  1.000000e+00
   outer loop
     vertex -3.546049e+00 -9.350162e+00  7.000000e+01
     vertex -7.485107e+00 -6.631227e+00  7.000000e+01
     vertex -5.680647e+00 -8.229839e+00  7.000000e+01
   endloop
 endfacet
 facet normal  0.000000e+00  0.000000e+00  1.000000e+00
   outer loop
     vertex -1.205367e+00 -9.927089e+00  7.000000e+01
     vertex -8.854560e+00 -4.647232e+00  7.000000e+01
     vertex -7.485107e+00 -6.631227e+00  7.000000e+01
   endloop
 endfacet
 facet normal  0.000000e+00  0.000000e+00  1.000000e+00
   outer loop
     vertex -1.205367e+00 -9.927089e+00  7.000000e+01
     vertex -7.485107e+00 -6.631227e+00  7.000000e+01
     vertex -3.546049e+00 -9.350162e+00  7.000000e+01
   endloop
 endfacet
 facet normal  0.000000e+00  0.000000e+00  1.000000e+00
   outer loop
     vertex -1.000000e+01  1.010643e-14  7.000000e+01
     vertex -9.709418e+00 -2.393157e+00  7.000000e+01
     vertex -8.854560e+00 -4.647232e+00  7.000000e+01
   endloop
 endfacet
 facet normal  0.000000e+00  0.000000e+00  1.000000e+00
   outer loop
     vertex  3.546049e+00 -9.350162e+00  7.000000e+01
     vertex -1.205367e+00 -9.927089e+00  7.000000e+01
     vertex  1.205367e+00 -9.927089e+00  7.000000e+01
   endloop
 endfacet
 facet normal  0.000000e+00  0.000000e+00  1.000000e+00
   outer loop
     vertex  3.546049e+00 -9.350162e+00  7.000000e+01
     vertex -8.854560e+00 -4.647232e+00  7.000000e+01
     vertex -1.205367e+00 -9.927089e+00  7.000000e+01
   endloop
 endfacet
 facet normal  0.000000e+00  0.000000e+00  1.000000e+00
   outer loop
     vertex  8.854560e+00 -4.647232e+00  7.000000e+01
     vertex  3.546049e+00 -9.350162e+00  7.000000e+01
     vertex  5.680647e+00 -8.229839e+00  7.000000e+01
   endloop
 endfacet
 facet normal  0.000000e+00  0.000000e+00  1.000000e+00
   outer loop
     vertex  8.854560e+00 -4.647232e+00  7.000000e+01
     vertex  5.680647e+00 -8.229839e+00  7.000000e+01
     vertex  7.485107e+00 -6.631227e+00  7.000000e+01
   endloop
 endfacet
 facet normal  0.000000e+00  0.000000e+00  1.000000e+00
   outer loop
     vertex  8.854560e+00 -4.647232e+00  7.000000e+01
     vertex -1.000000e+01  1.010643e-14  7.000000e+01
     vertex -8.854560e+00 -4.647232e+00  7.000000e+01
   endloop
 endfacet
 facet normal  0.000000e+00  0.000000e+00  1.000000e+00
   outer loop
     vertex  8.854560e+00 -4.647232e+00  7.000000e+01
     vertex -8.854560e+00 -4.647232e+00  7.000000e+01
     vertex  3.546049e+00 -9.350162e+00  7.000000e+01
   endloop
 endfacet
 facet normal  0.000000e+00  0.000000e+00  1.000000e+00
   outer loop
     vertex -3.546049e+00  9.350162e+00  7.000000e+01
     vertex -5.680647e+00  8.229839e+00  7.000000e+01
     vertex -7.485107e+00  6.631227e+00  7.000000e+01
   endloop
 endfacet
 facet normal  0.000000e+00  0.000000e+00  1.000000e+00
   outer loop
     vertex -3.546049e+00  9.350162e+00  7.000000e+01
     vertex -7.485107e+00  6.631227e+00  7.000000e+01
     vertex -8.854560e+00  4.647232e+00  7.000000e+01
   endloop
 endfacet
 facet normal  0.000000e+00  0.000000e+00  1.000000e+00
   outer loop
     vertex -3.546049e+00  9.350162e+00  7.000000e+01
     vertex -8.854560e+00  4.647232e+00  7.000000e+01
     vertex -9.709418e+00  2.393157e+00  7.000000e+01
   endloop
 endfacet
 facet normal  0.000000e+00  0.000000e+00  1.000000e+00
   outer loop
     vertex -3.546049e+00  9.350162e+00  7.000000e+01
     vertex -9.709418e+00  2.393157e+00  7.000000e+01
     vertex -1.000000e+01  1.010643e-14  7.000000e+01
   endloop
 endfacet
 facet normal  0.000000e+00  0.000000e+00  1.000000e+00
   outer loop
     vertex  1.000000e+01 -2.449294e-15  7.000000e+01
     vertex  8.854560e+00 -4.647232e+00  7.000000e+01
     vertex  9.709418e+00 -2.393157e+00  7.000000e+01
   endloop
 endfacet
 facet normal  0.000000e+00  0.000000e+00  1.000000e+00
   outer loop
     vertex  1.000000e+01 -2.449294e-15  7.000000e+01
     vertex -1.000000e+01  1.010643e-14  7.000000e+01
     vertex  8.854560e+00 -4.647232e+00  7.000000e+01
   endloop
 endfacet
 facet normal  0.000000e+00  0.000000e+00  1.000000e+00
   outer loop
     vertex  1.000000e+01 -2.449294e-15  7.000000e+01
     vertex -3.546049e+00  9.350162e+00  7.000000e+01
     vertex -1.000000e+01  1.010643e-14  7.000000e+01
   endloop
 endfacet
 facet normal  0.000000e+00  0.000000e+00  1.000000e+00
   outer loop
     vertex  3.546049e+00  9.350162e+00  7.000000e+01
     vertex  1.205367e+00  9.927089e+00  7.000000e+01
     vertex -1.205367e+00  9.927089e+00  7.000000e+01
   endloop
 endfacet
 facet normal  0.000000e+00  0.000000e+00  1.000000e+00
   outer loop
     vertex  3.546049e+00  9.350162e+00  7.000000e+01
     vertex -1.205367e+00  9.927089e+00  7.000000e+01
     vertex -3.546049e+00  9.350162e+00  7.000000e+01
   endloop
 endfacet
 facet normal  0.000000e+00  0.000000e+00  1.000000e+00
   outer loop
     vertex  8.854560e+00  4.647232e+00  7.000000e+01
     vertex  1.000000e+01 -2.449294e-15  7.000000e+01
     vertex  9.709418e+00  2.393157e+00  7.000000e+01
   endloop
 endfacet
 facet normal  0.000000e+00  0.000000e+00  1.000000e+00
   outer loop
     vertex  7.485107e+00  6.631227e+00  7.000000e+01
     vertex  5.680647e+00  8.229839e+00  7.000000e+01
     vertex  3.546049e+00  9.350162e+00  7.000000e+01
   endloop
 endfacet
 facet normal  0.000000e+00  0.000000e+00  1.000000e+00
   outer loop
     vertex  7.485107e+00  6.631227e+00  7.000000e+01
     vertex -3.546049e+00  9.350162e+00  7.000000e+01
     vertex  1.000000e+01 -2.449294e-15  7.000000e+01
   endloop
 endfacet
 facet normal  0.000000e+00  0.000000e+00  1.000000e+00
   outer loop
     vertex  7.485107e+00  6.631227e+00  7.000000e+01
     vertex  1.000000e+01 -2.449294e-15  7.000000e+01
     vertex  8.854560e+00  4.647232e+00  7.000000e+01
   endloop
 endfacet
 facet normal  0.000000e+00  0.000000e+00  1.000000e+00
   outer loop
     vertex  7.485107e+00  6.631227e+00  7.000000e+01
     vertex  3.546049e+00  9.350162e+00  7.000000e+01
     vertex -3.546049e+00  9.350162e+00  7.000000e+01
   endloop
 endfacet
endsolid
