$ 99 grids, 40 CHEXA elements
$ Steel 100x100 mm cross-section, L=1 m
$ Fixed left face (x=0), Fy=-10 kN on right face (x=1)
$ Analytical tip deflection: delta = PL^3/(3EI) = -1.587e-4 m  (I=h^4/12)
$ Units: SI (m, N, Pa, kg/m^3). Free-field MSC/NX Nastran bulk data.
$
SOL 101
CEND
TITLE = KoFEM CHEXA cantilever beam, 10x2x2
SUBCASE 1
  SPC = 1
  LOAD = 1
  DISPLACEMENT = ALL
  STRESS = ALL
BEGIN BULK
$ Steel
MAT1,1,2.1e+11,,0.3,7850
PSOLID,1,1
$ Grids
GRID,1,,0,0,0
GRID,2,,0,0,0.05
GRID,3,,0,0,0.1
GRID,4,,0,0.05,0
GRID,5,,0,0.05,0.05
GRID,6,,0,0.05,0.1
GRID,7,,0,0.1,0
GRID,8,,0,0.1,0.05
GRID,9,,0,0.1,0.1
GRID,10,,0.1,0,0
GRID,11,,0.1,0,0.05
GRID,12,,0.1,0,0.1
GRID,13,,0.1,0.05,0
GRID,14,,0.1,0.05,0.05
GRID,15,,0.1,0.05,0.1
GRID,16,,0.1,0.1,0
GRID,17,,0.1,0.1,0.05
GRID,18,,0.1,0.1,0.1
GRID,19,,0.2,0,0
GRID,20,,0.2,0,0.05
GRID,21,,0.2,0,0.1
GRID,22,,0.2,0.05,0
GRID,23,,0.2,0.05,0.05
GRID,24,,0.2,0.05,0.1
GRID,25,,0.2,0.1,0
GRID,26,,0.2,0.1,0.05
GRID,27,,0.2,0.1,0.1
GRID,28,,0.3,0,0
GRID,29,,0.3,0,0.05
GRID,30,,0.3,0,0.1
GRID,31,,0.3,0.05,0
GRID,32,,0.3,0.05,0.05
GRID,33,,0.3,0.05,0.1
GRID,34,,0.3,0.1,0
GRID,35,,0.3,0.1,0.05
GRID,36,,0.3,0.1,0.1
GRID,37,,0.4,0,0
GRID,38,,0.4,0,0.05
GRID,39,,0.4,0,0.1
GRID,40,,0.4,0.05,0
GRID,41,,0.4,0.05,0.05
GRID,42,,0.4,0.05,0.1
GRID,43,,0.4,0.1,0
GRID,44,,0.4,0.1,0.05
GRID,45,,0.4,0.1,0.1
GRID,46,,0.5,0,0
GRID,47,,0.5,0,0.05
GRID,48,,0.5,0,0.1
GRID,49,,0.5,0.05,0
GRID,50,,0.5,0.05,0.05
GRID,51,,0.5,0.05,0.1
GRID,52,,0.5,0.1,0
GRID,53,,0.5,0.1,0.05
GRID,54,,0.5,0.1,0.1
GRID,55,,0.6,0,0
GRID,56,,0.6,0,0.05
GRID,57,,0.6,0,0.1
GRID,58,,0.6,0.05,0
GRID,59,,0.6,0.05,0.05
GRID,60,,0.6,0.05,0.1
GRID,61,,0.6,0.1,0
GRID,62,,0.6,0.1,0.05
GRID,63,,0.6,0.1,0.1
GRID,64,,0.7,0,0
GRID,65,,0.7,0,0.05
GRID,66,,0.7,0,0.1
GRID,67,,0.7,0.05,0
GRID,68,,0.7,0.05,0.05
GRID,69,,0.7,0.05,0.1
GRID,70,,0.7,0.1,0
GRID,71,,0.7,0.1,0.05
GRID,72,,0.7,0.1,0.1
GRID,73,,0.8,0,0
GRID,74,,0.8,0,0.05
GRID,75,,0.8,0,0.1
GRID,76,,0.8,0.05,0
GRID,77,,0.8,0.05,0.05
GRID,78,,0.8,0.05,0.1
GRID,79,,0.8,0.1,0
GRID,80,,0.8,0.1,0.05
GRID,81,,0.8,0.1,0.1
GRID,82,,0.9,0,0
GRID,83,,0.9,0,0.05
GRID,84,,0.9,0,0.1
GRID,85,,0.9,0.05,0
GRID,86,,0.9,0.05,0.05
GRID,87,,0.9,0.05,0.1
GRID,88,,0.9,0.1,0
GRID,89,,0.9,0.1,0.05
GRID,90,,0.9,0.1,0.1
GRID,91,,1,0,0
GRID,92,,1,0,0.05
GRID,93,,1,0,0.1
GRID,94,,1,0.05,0
GRID,95,,1,0.05,0.05
GRID,96,,1,0.05,0.1
GRID,97,,1,0.1,0
GRID,98,,1,0.1,0.05
GRID,99,,1,0.1,0.1
$ Elements (CHEXA corner order matches the fixture meshes)
CHEXA,1,1,1,10,13,4,2,11
,14,5
CHEXA,2,1,2,11,14,5,3,12
,15,6
CHEXA,3,1,4,13,16,7,5,14
,17,8
CHEXA,4,1,5,14,17,8,6,15
,18,9
CHEXA,5,1,10,19,22,13,11,20
,23,14
CHEXA,6,1,11,20,23,14,12,21
,24,15
CHEXA,7,1,13,22,25,16,14,23
,26,17
CHEXA,8,1,14,23,26,17,15,24
,27,18
CHEXA,9,1,19,28,31,22,20,29
,32,23
CHEXA,10,1,20,29,32,23,21,30
,33,24
CHEXA,11,1,22,31,34,25,23,32
,35,26
CHEXA,12,1,23,32,35,26,24,33
,36,27
CHEXA,13,1,28,37,40,31,29,38
,41,32
CHEXA,14,1,29,38,41,32,30,39
,42,33
CHEXA,15,1,31,40,43,34,32,41
,44,35
CHEXA,16,1,32,41,44,35,33,42
,45,36
CHEXA,17,1,37,46,49,40,38,47
,50,41
CHEXA,18,1,38,47,50,41,39,48
,51,42
CHEXA,19,1,40,49,52,43,41,50
,53,44
CHEXA,20,1,41,50,53,44,42,51
,54,45
CHEXA,21,1,46,55,58,49,47,56
,59,50
CHEXA,22,1,47,56,59,50,48,57
,60,51
CHEXA,23,1,49,58,61,52,50,59
,62,53
CHEXA,24,1,50,59,62,53,51,60
,63,54
CHEXA,25,1,55,64,67,58,56,65
,68,59
CHEXA,26,1,56,65,68,59,57,66
,69,60
CHEXA,27,1,58,67,70,61,59,68
,71,62
CHEXA,28,1,59,68,71,62,60,69
,72,63
CHEXA,29,1,64,73,76,67,65,74
,77,68
CHEXA,30,1,65,74,77,68,66,75
,78,69
CHEXA,31,1,67,76,79,70,68,77
,80,71
CHEXA,32,1,68,77,80,71,69,78
,81,72
CHEXA,33,1,73,82,85,76,74,83
,86,77
CHEXA,34,1,74,83,86,77,75,84
,87,78
CHEXA,35,1,76,85,88,79,77,86
,89,80
CHEXA,36,1,77,86,89,80,78,87
,90,81
CHEXA,37,1,82,91,94,85,83,92
,95,86
CHEXA,38,1,83,92,95,86,84,93
,96,87
CHEXA,39,1,85,94,97,88,86,95
,98,89
CHEXA,40,1,86,95,98,89,87,96
,99,90
$ Fixed face: translations 1-3
SPC1,1,123,1,2,3,4,5,6,7,8,9
$ Tip load, split equally over the load-face grids
FORCE,1,91,0,1111.11111111,0,-1,0
FORCE,1,92,0,1111.11111111,0,-1,0
FORCE,1,93,0,1111.11111111,0,-1,0
FORCE,1,94,0,1111.11111111,0,-1,0
FORCE,1,95,0,1111.11111111,0,-1,0
FORCE,1,96,0,1111.11111111,0,-1,0
FORCE,1,97,0,1111.11111111,0,-1,0
FORCE,1,98,0,1111.11111111,0,-1,0
FORCE,1,99,0,1111.11111111,0,-1,0
ENDDATA
